<?xml version="1.0" standalone="no"?>
<!DOCTYPE svg PUBLIC "-//W3C//DTD SVG 20010904//EN"
 "http://www.w3.org/TR/2001/REC-SVG-20010904/DTD/svg10.dtd">
<svg version="1.0" xmlns="http://www.w3.org/2000/svg"
 width="72.000000pt" height="72.000000pt" viewBox="0 0 72.000000 72.000000"
 preserveAspectRatio="xMidYMid meet">
<metadata>
Created by potrace 1.11, written by Peter Selinger 2001-2013
</metadata>
<g transform="translate(0.000000,72.000000) scale(0.100000,-0.100000)"
fill="#000000" stroke="none">
<path d="M0 360 l0 -360 360 0 360 0 0 360 0 360 -360 0 -360 0 0 -360z m564
222 c3 -5 -90 -104 -207 -220 -140 -140 -214 -207 -219 -199 -13 21 -10 401 4
415 14 14 413 17 422 4z m-70 -355 c50 -46 77 -78 72 -85 -10 -16 -302 -17
-312 -1 -7 12 135 159 152 159 5 0 45 -33 88 -73z"/>
</g>
</svg>
